# xmcd
# 
# Track frame offsets:
#     150
#     22256
#     42557
#     61684
#     70876
#     83238
#     100201
#     101312
#     108649
#     122441
#     140403
#     150412
#     159674
#     178062
#     198055
#     215166
#     235503
#     254322
#     272957
#     294605
# 
# Disc length: 4167
# 
# Revision: 4
# Processed by: cddbd v1.5.2PL0 Copyright (c) Steve Scherf et al.
# Submitted via: fre:ac v1.0.31
# 
DISCID=1e104514
DTITLE=Death - Human - Disc 2
DYEAR=2011
DGENRE=Rock/Pop
TTITLE0=Flattening Of Emotions [Basic Instrumental Studio Track]
TTITLE1=Suicide Machine [Basic Instrumental Studio Track]
TTITLE2=Together As One [Basic Instrumental Studio Track]
TTITLE3=Secret Face [Basic Instrumental Studio Track]
TTITLE4=Secret Face - Part 2 [Basic Instrumental Studio Track]
TTITLE5=Lack Of Comprehension [Basic Instrumental Studio Track]
TTITLE6="Felt Good" - Studio Snippet  [Basic Instrumental Studio Track]
TTITLE7=See Through Dreams [Basic Instrumental Studio Track]
TTITLE8=See Through Dreams - Part 2 [Basic Instrumental Studio Track]
TTITLE9=Vacant Planets [Basic Instrumental Studio Track]
TTITLE10=Cosmic Sea [Basic Instrumental Studio Track]
TTITLE11=Cosmic Sea - Part 2 [Basic Instrumental Studio Track]
TTITLE12=God Of Thunder [Basic Instrumental Studio Track]
TTITLE13=Flattening of Emotions [Human Demos, March 25, 1991]
TTITLE14=Lack of Comprehension [Human Demos, March 25, 1991]
TTITLE15=Suicide Machine [Human Demos, March 25, 1991]
TTITLE16=Together as One [Human Demos, March 25, 1991]
TTITLE17=See Through Dreams [Human Demos, March 25, 1991]
TTITLE18=Secret Face (Instrumental) [Human Demos, March 25, 1991]
TTITLE19=Vacant Planets (Instrumental) [Human Demos, March 25, 1991]
EXTD=Year: 2011
EXTT0=
EXTT1=
EXTT2=
EXTT3=
EXTT4=
EXTT5=
EXTT6=
EXTT7=
EXTT8=
EXTT9=
EXTT10=
EXTT11=
EXTT12=
EXTT13=
EXTT14=
EXTT15=
EXTT16=
EXTT17=
EXTT18=
EXTT19=
PLAYORDER=
